# xmcd
#
# Track frame offsets:
#	150
#	12164
#	24380
#	37019
#	49978
#	60329
#	73206
#	85411
#	102806
#	117134
#	125079
#	136563
#	149311
#	160597
#	169982
#	182277
#	194083
#	209833
#	222038
#	232302
#	249015
#	262295
#	274019
#	285728
#	297520
#	312508
#	325349
#
# Disc length: 4475 seconds
#
# Revision: 0
# Processed by: cddbd v1.4PL0 Copyright (c) Steve Scherf et al.
# Submitted via: audiograbber 1.82.01
#
DISCID=a311791b
DTITLE=los iracundos  - discografia comleta vol8
DYEAR=1976
DGENRE=latin music
TTITLE0=agua con amor
TTITLE1=tu eres tu
TTITLE2=un dia distinto
TTITLE3=sinfonia numero 40
TTITLE4=yo vivire
TTITLE5=vagabundo
TTITLE6=soy un extraño que va 
TTITLE7=infidelidad , es tu traicion 
TTITLE8=millonario pobre millonario
TTITLE9=nenea
TTITLE10=soy tu calavera 
TTITLE11=rio verde
TTITLE12=te lo pido de rodillas 
TTITLE13=tengo que robarte el corazon 
TTITLE14=alguien que s ecruce en mi camino
TTITLE15=apache
TTITLE16=aquie estoy
TTITLE17=la locura de vivir
TTITLE18=mis palabras las lleva elviento
TTITLE19=es un papel
TTITLE20=dulce amor es el que sale de tus ojos
TTITLE21=quien hablo
TTITLE22=ultimo tango en paris
TTITLE23=venite volando
TTITLE24=marionetas de carton 
TTITLE25=todo es posible
TTITLE26=por eso estoy preso
EXTD=
EXTT0=
EXTT1=
EXTT2=
EXTT3=
EXTT4=
EXTT5=
EXTT6=
EXTT7=
EXTT8=
EXTT9=
EXTT10=
EXTT11=
EXTT12=
EXTT13=
EXTT14=
EXTT15=
EXTT16=
EXTT17=
EXTT18=
EXTT19=
EXTT20=
EXTT21=
EXTT22=
EXTT23=
EXTT24=
EXTT25=
EXTT26=
PLAYORDER=
